<?xml version="1.0" encoding="utf-8"?>
<svg xmlns="http://www.w3.org/2000/svg" viewBox="0 0 48 48" width="96" height="96">
  <path d="M42.496,22.379l-6.313-5.611l-2.125,2.125l5.888,5.234c-4.218-1.65-8.335-1.17-11.022-0.493c-0.103-0.648-0.316-1.26-0.626-1.812l4.261-4.261l0.001,0.001l2.125-2.125l-0.001-0.001l7.875-7.875c0.429-0.429,0.558-1.074,0.325-1.635C42.653,5.365,42.106,5,41.499,5h-19c-0.428,0-0.836,0.184-1.121,0.504l-5.616,6.318l2.131,2.118L23.173,8h0.145c-1.818,4.169-1.476,8.293-0.835,11.098c-0.593,0.111-1.152,0.317-1.662,0.602l-4.261-4.261l0.003-0.003l-3.056-3.037c-0.011-0.011-0.015-0.027-0.026-0.038L6.56,5.439C6.131,5.011,5.486,4.881,4.925,5.114C4.364,5.347,3.999,5.894,3.999,6.5v19c0,0.429,0.183,0.837,0.503,1.121l6.319,5.617l2.125-2.125L7.08,24.899c2.095,0.815,4.168,1.11,6.053,1.11c1.898,0,3.596-0.294,4.941-0.635c0.104,0.646,0.316,1.255,0.625,1.805l-4.146,4.146c-0.007,0.008-0.01,0.018-0.017,0.026l-4.006,4.006c-0.008,0.008-0.018,0.01-0.026,0.017l-6.066,6.066c-0.429,0.429-0.558,1.074-0.325,1.635C4.345,43.635,4.892,44,5.499,44h19c0.428,0,0.836-0.184,1.121-0.504l5.629-6.332l-2.125-2.125l-5.251,5.908c1.65-4.217,1.17-8.335,0.493-11.022c0.648-0.103,1.26-0.316,1.812-0.625l3.424,3.424c0.034,0.026,0.074,0.039,0.105,0.07l4.007,4.007c0.031,0.031,0.044,0.071,0.07,0.105l6.656,6.656C40.725,43.848,41.109,44,41.5,44c0.193,0,0.388-0.037,0.574-0.114c0.561-0.232,0.926-0.779,0.926-1.386v-19C42.999,23.071,42.816,22.663,42.496,22.379z M20.999,24.5c0-1.379,1.122-2.5,2.5-2.5s2.5,1.121,2.5,2.5s-1.122,2.5-2.5,2.5S20.999,25.879,20.999,24.5z" fill="#FFFFFF" />
</svg>